<svg xmlns="http://www.w3.org/2000/svg" xmlns:xlink="http://www.w3.org/1999/xlink" width="1080" height="680" viewBox="0 0 1080 680" xmlns:c2pa="http://c2pa.org/manifest"><metadata><c2pa:manifest>AAAWgmp1bWIAAAAeanVtZGMycGEAEQAQgAAAqgA4m3EDYzJwYQAAABZcanVtYgAAAEdqdW1kYzJtYQARABCAAACqADibcQN1cm46YzJwYTo0NzBmYTM3Yi00NjgwLTRjZGItYjFiZi02ZDg4ZjgwYmExOGMAAAADl2p1bWIAAAApanVtZGMyYXMAEQAQgAAAqgA4m3EDYzJwYS5hc3NlcnRpb25zAAAAALxqdW1iAAAARGp1bWRjYm9yABEAEIAAAKoAOJtxE2MycGEuaW5ncmVkaWVudC52MwAAAAAYYzJzaO5qQQddBHXqxnXe5Mb/OAcAAABwY2JvcqNpZGM6Zm9ybWF0bWltYWdlL3N2Zyt4bWxqaW5zdGFuY2VJRHgseG1wOmlpZDo4MDhlY2FmYS0yOGEzLTQxODItYjM5MC1kZjZlMzM2YjEyNGFscmVsYXRpb25zaGlwaHBhcmVudE9mAAAB4mp1bWIAAABBanVtZGNib3IAEQAQgAAAqgA4m3ETYzJwYS5hY3Rpb25zLnYyAAAAABhjMnNoaHfNqFFxfzENfIbM4vMtuQAAAZljYm9yomdhY3Rpb25zgqJmYWN0aW9ua2MycGEub3BlbmVkanBhcmFtZXRlcnOha2luZ3JlZGllbnRzgaJjdXJseC1zZWxmI2p1bWJmPWMycGEuYXNzZXJ0aW9ucy9jMnBhLmluZ3JlZGllbnQudjNkaGFzaFggD7w9XPZXXxTGaEEm8rcXHbMidp1uWEYW87m0HXfzOG+kZmFjdGlvbngdY29tLmFudGhyb3BpYy5jbGF1ZGUucHJvdmlkZWRqcGFyYW1ldGVyc6F4H2NvbS5hbnRocm9waWMub3JpZ2luLWNvbmZpZGVuY2VndW5rbm93bmtkZXNjcmlwdGlvbnhmQ2xhdWRlIHByb3ZpZGVkIHRoaXMgZmlsZSBhdCB0aGUgcmVxdWVzdCBvZiBhIHVzZXIgYW5kIG1heSBoYXZlIGNyZWF0ZWQgb3IgbW9kaWZpZWQgdGhlIGZpbGUgY29udGVudHMubXNvZnR3YXJlQWdlbnShZG5hbWVmQ2xhdWRlcmFsbEFjdGlvbnNJbmNsdWRlZPUAAADIanVtYgAAAEBqdW1kY2JvcgARABCAAACqADibcRNjMnBhLmhhc2guZGF0YQAAAAAYYzJzaMnkbts1llP8xPh3vKg31MEAAACAY2JvcqVjYWxnZnNoYTI1NmNwYWRNAAAAAAAAAAAAAAAAAGRoYXNoWCAhKsBBqJOAv0GBjO5bjwkUYGWLIr45spZLiWiEpT5Ll2RuYW1lbmp1bWJmIG1hbmlmZXN0amV4Y2x1c2lvbnOBomVzdGFydBjDZmxlbmd0aBkeBAAAAj5qdW1iAAAAJ2p1bWRjMmNsABEAEIAAAKoAOJtxA2MycGEuY2xhaW0udjIAAAACD2Nib3KlY2FsZ2ZzaGEyNTZpc2lnbmF0dXJleE1zZWxmI2p1bWJmPS9jMnBhL3VybjpjMnBhOjQ3MGZhMzdiLTQ2ODAtNGNkYi1iMWJmLTZkODhmODBiYTE4Yy9jMnBhLnNpZ25hdHVyZWppbnN0YW5jZUlEeCx4bXA6aWlkOjMyZjRmZDEwLWJiNjQtNDQ0ZC04ZjE0LWFmYTYyZDE0Y2RhZXJjcmVhdGVkX2Fzc2VydGlvbnODomN1cmx4LXNlbGYjanVtYmY9YzJwYS5hc3NlcnRpb25zL2MycGEuaW5ncmVkaWVudC52M2RoYXNoWCAPvD1c9ldfFMZoQSbytxcdsyJ2nW5YRhbzubQdd/M4b6JjdXJseCpzZWxmI2p1bWJmPWMycGEuYXNzZXJ0aW9ucy9jMnBhLmFjdGlvbnMudjJkaGFzaFgg5vD6g0cL1D0PBPPeuWqxnRV2iOHU+M69PeyJvSwqvgGiY3VybHgpc2VsZiNqdW1iZj1jMnBhLmFzc2VydGlvbnMvYzJwYS5oYXNoLmRhdGFkaGFzaFggfC2z94LdmQQPO4OMvvKW/mSSd11r55+Ip7wcgAcwNjJ0Y2xhaW1fZ2VuZXJhdG9yX2luZm+jZG5hbWVvQW50aHJvcGljIEZpbGVzZ3ZlcnNpb25lMS4wLjBrc3BlY1ZlcnNpb25lMi40LjAAABA4anVtYgAAAChqdW1kYzJjcwARABCAAACqADibcQNjMnBhLnNpZ25hdHVyZQAAABAIY2JvctKEWQISogEmGCFZAgowggIGMIIBjaADAgECAhRA5aAK7sI50L64g/oGQgU9Z1UTADAKBggqhkjOPQQDAzBJMRcwFQYDVQQKEw5BbnRocm9waWMsIFBCQzEuMCwGA1UEAxMlQW50aHJvcGljIENvbnRlbnQgQ3JlZGVudGlhbHMgUm9vdCBDQTAeFw0yNjA4MDcxODQzNTZaFw0yODA4MDYxOTQzNTZaMEQxFzAVBgNVBAoTDkFudGhyb3BpYywgUEJDMSkwJwYDVQQDEyBBbnRocm9waWMgQ2xhdWRlIENvbnRlbnQgU2lnbmluZzBZMBMGByqGSM49AgEGCCqGSM49AwEHA0IABJh6CmvLUBgFFNU0vUKlOVtE6djd17L5SuwX0LemFisBM3dkd/3cyjxFA3Qo5S46fX0/ihY0VZ7mfb9KF703t5OjWDBWMA4GA1UdDwEB/wQEAwIHgDAVBgNVHSUEDjAMBgorBgEEAYPoXgIBMAwGA1UdEwEB/wQCMAAwHwYDVR0jBBgwFoAUzlHiBIFOZFsj+OPEz5o+nMHXXMIwCgYIKoZIzj0EAwMDZwAwZAIwMXMdFJ4BetLLVY7ORuE9noqbbAZOZn/aArXyTwFAZfKrPzxF2vPoJNf1+UCdg1XGAjBwX1zd9WGqYkqmL5SFqw1QySjr1zJfpJM9+1rdDwSPLMOPOjKuiXjoU/pUUeG9RwmhY3BhZFkNngAAAAAAAAAAAAAAAAAAAAAAAAAAAAAAAAAAAAAAAAAAAAAAAAAAAAAAAAAAAAAAAAAAAAAAAAAAAAAAAAAAAAAAAAAAAAAAAAAAAAAAAAAAAAAAAAAAAAAAAAAAAAAAAAAAAAAAAAAAAAAAAAAAAAAAAAAAAAAAAAAAAAAAAAAAAAAAAAAAAAAAAAAAAAAAAAAAAAAAAAAAAAAAAAAAAAAAAAAAAAAAAAAAAAAAAAAAAAAAAAAAAAAAAAAAAAAAAAAAAAAAAAAAAAAAAAAAAAAAAAAAAAAAAAAAAAAAAAAAAAAAAAAAAAAAAAAAAAAAAAAAAAAAAAAAAAAAAAAAAAAAAAAAAAAAAAAAAAAAAAAAAAAAAAAAAAAAAAAAAAAAAAAAAAAAAAAAAAAAAAAAAAAAAAAAAAAAAAAAAAAAAAAAAAAAAAAAAAAAAAAAAAAAAAAAAAAAAAAAAAAAAAAAAAAAAAAAAAAAAAAAAAAAAAAAAAAAAAAAAAAAAAAAAAAAAAAAAAAAAAAAAAAAAAAAAAAAAAAAAAAAAAAAAAAAAAAAAAAAAAAAAAAAAAAAAAAAAAAAAAAAAAAAAAAAAAAAAAAAAAAAAAAAAAAAAAAAAAAAAAAAAAAAAAAAAAAAAAAAAAAAAAAAAAAAAAAAAAAAAAAAAAAAAAAAAAAAAAAAAAAAAAAAAAAAAAAAAAAAAAAAAAAAAAAAAAAAAAAAAAAAAAAAAAAAAAAAAAAAAAAAAAAAAAAAAAAAAAAAAAAAAAAAAAAAAAAAAAAAAAAAAAAAAAAAAAAAAAAAAAAAAAAAAAAAAAAAAAAAAAAAAAAAAAAAAAAAAAAAAAAAAAAAAAAAAAAAAAAAAAAAAAAAAAAAAAAAAAAAAAAAAAAAAAAAAAAAAAAAAAAAAAAAAAAAAAAAAAAAAAAAAAAAAAAAAAAAAAAAAAAAAAAAAAAAAAAAAAAAAAAAAAAAAAAAAAAAAAAAAAAAAAAAAAAAAAAAAAAAAAAAAAAAAAAAAAAAAAAAAAAAAAAAAAAAAAAAAAAAAAAAAAAAAAAAAAAAAAAAAAAAAAAAAAAAAAAAAAAAAAAAAAAAAAAAAAAAAAAAAAAAAAAAAAAAAAAAAAAAAAAAAAAAAAAAAAAAAAAAAAAAAAAAAAAAAAAAAAAAAAAAAAAAAAAAAAAAAAAAAAAAAAAAAAAAAAAAAAAAAAAAAAAAAAAAAAAAAAAAAAAAAAAAAAAAAAAAAAAAAAAAAAAAAAAAAAAAAAAAAAAAAAAAAAAAAAAAAAAAAAAAAAAAAAAAAAAAAAAAAAAAAAAAAAAAAAAAAAAAAAAAAAAAAAAAAAAAAAAAAAAAAAAAAAAAAAAAAAAAAAAAAAAAAAAAAAAAAAAAAAAAAAAAAAAAAAAAAAAAAAAAAAAAAAAAAAAAAAAAAAAAAAAAAAAAAAAAAAAAAAAAAAAAAAAAAAAAAAAAAAAAAAAAAAAAAAAAAAAAAAAAAAAAAAAAAAAAAAAAAAAAAAAAAAAAAAAAAAAAAAAAAAAAAAAAAAAAAAAAAAAAAAAAAAAAAAAAAAAAAAAAAAAAAAAAAAAAAAAAAAAAAAAAAAAAAAAAAAAAAAAAAAAAAAAAAAAAAAAAAAAAAAAAAAAAAAAAAAAAAAAAAAAAAAAAAAAAAAAAAAAAAAAAAAAAAAAAAAAAAAAAAAAAAAAAAAAAAAAAAAAAAAAAAAAAAAAAAAAAAAAAAAAAAAAAAAAAAAAAAAAAAAAAAAAAAAAAAAAAAAAAAAAAAAAAAAAAAAAAAAAAAAAAAAAAAAAAAAAAAAAAAAAAAAAAAAAAAAAAAAAAAAAAAAAAAAAAAAAAAAAAAAAAAAAAAAAAAAAAAAAAAAAAAAAAAAAAAAAAAAAAAAAAAAAAAAAAAAAAAAAAAAAAAAAAAAAAAAAAAAAAAAAAAAAAAAAAAAAAAAAAAAAAAAAAAAAAAAAAAAAAAAAAAAAAAAAAAAAAAAAAAAAAAAAAAAAAAAAAAAAAAAAAAAAAAAAAAAAAAAAAAAAAAAAAAAAAAAAAAAAAAAAAAAAAAAAAAAAAAAAAAAAAAAAAAAAAAAAAAAAAAAAAAAAAAAAAAAAAAAAAAAAAAAAAAAAAAAAAAAAAAAAAAAAAAAAAAAAAAAAAAAAAAAAAAAAAAAAAAAAAAAAAAAAAAAAAAAAAAAAAAAAAAAAAAAAAAAAAAAAAAAAAAAAAAAAAAAAAAAAAAAAAAAAAAAAAAAAAAAAAAAAAAAAAAAAAAAAAAAAAAAAAAAAAAAAAAAAAAAAAAAAAAAAAAAAAAAAAAAAAAAAAAAAAAAAAAAAAAAAAAAAAAAAAAAAAAAAAAAAAAAAAAAAAAAAAAAAAAAAAAAAAAAAAAAAAAAAAAAAAAAAAAAAAAAAAAAAAAAAAAAAAAAAAAAAAAAAAAAAAAAAAAAAAAAAAAAAAAAAAAAAAAAAAAAAAAAAAAAAAAAAAAAAAAAAAAAAAAAAAAAAAAAAAAAAAAAAAAAAAAAAAAAAAAAAAAAAAAAAAAAAAAAAAAAAAAAAAAAAAAAAAAAAAAAAAAAAAAAAAAAAAAAAAAAAAAAAAAAAAAAAAAAAAAAAAAAAAAAAAAAAAAAAAAAAAAAAAAAAAAAAAAAAAAAAAAAAAAAAAAAAAAAAAAAAAAAAAAAAAAAAAAAAAAAAAAAAAAAAAAAAAAAAAAAAAAAAAAAAAAAAAAAAAAAAAAAAAAAAAAAAAAAAAAAAAAAAAAAAAAAAAAAAAAAAAAAAAAAAAAAAAAAAAAAAAAAAAAAAAAAAAAAAAAAAAAAAAAAAAAAAAAAAAAAAAAAAAAAAAAAAAAAAAAAAAAAAAAAAAAAAAAAAAAAAAAAAAAAAAAAAAAAAAAAAAAAAAAAAAAAAAAAAAAAAAAAAAAAAAAAAAAAAAAAAAAAAAAAAAAAAAAAAAAAAAAAAAAAAAAAAAAAAAAAAAAAAAAAAAAAAAAAAAAAAAAAAAAAAAAAAAAAAAAAAAAAAAAAAAAAAAAAAAAAAAAAAAAAAAAAAAAAAAAAAAAAAAAAAAAAAAAAAAAAAAAAAAAAAAAAAAAAAAAAAAAAAAAAAAAAAAAAAAAAAAAAAAAAAAAAAAAAAAAAAAAAAAAAAAAAAAAAAAAAAAAAAAAAAAAAAAAAAAAAAAAAAAAAAAAAAAAAAAAAAAAAAAAAAAAAAAAAAAAAAAAAAAAAAAAAAAAAAAAAAAAAAAAAAAAAAAAAAAAAAAAAAAAAAAAAAAAAAAAAAAAAAAAAAAAAAAAAAAAAAAAAAAAAAAAAAAAAAAAAAAAAAAAAAAAAAAAAAAAAAAAAAAAAAAAAAAAAAAAAAAAAAAAAAAAAAAAAAAAAAAAAAAAAAAAAAAAAAAAAAAAAAAAAAAAAAAAAAAAAAAAAAAAAAAAAAAAAAAAAAAAAAAAAAAAAAAAAAAAAAAAAAAAAAAAAAAAAAAAAAAAAAAAAAAAAAAAAAAAAAAAAAAAAAAAAAAAAAAAAAAAAAAAAAAAAAAAAAAAAAAAAAAAAAAAAAAAAAAAAAAAAAAAAAAAAAAAAAAAAAAAAAAAAAAAAAAAAAAAAAAAAAAAAAAAAAAAAAAAAAAAAAAAAAAAAAAAAAAAAAAAAAAAAAAAAAAAAAAAAAAAAAAAAAAAAAAAAAAAAAAAAAAAAAAAAAAAAAAAAAAAAAAAAAAAAAAAAAAAAAAAAAAAAAAAAAAAAAAAAAAAAAAAAAAAAAAAAAAAAAAAAAAAAAAAAAAAAAAAAAAAAAAAAAAAAAAAAAAAAAAAAAAAAAAAAAAAAAAAAAAAAAAAAAAAAAAAAAAAAAAAAAAAAAAAAAAAAAAAAAAAAAAAAAAAAAAAAAAAAAAAAAAAAAAAAAAAAAAAAAAAAAAAAAAAAAAAAAAAAAAAAAAAAAAAAAAAAAAAAAAAAAAAAAAAAAAAAAAAAAAAAAAAAAAAAAAAAAAAAAAAAAAAAAAAAAAAAAAAAAAAAAAAAAAAAAAAAAAAAAAAAAAAAAAAAAAAAAAAAAAAAAAAAAAAAAAAAAAAAAAAAAAAAAAAAAAAAAAAAAAAAAAAAAAAAAAAAAAAAAAAAAAAAAAAAAAAAAAAAAAAAAAAAAAAAAAAAAAAAAAAAAAAAAAAAAAAAAAAAAAAAAAAAAAAAAAAAAAAAAAAAAAAAAAAAAAAAAAAAAAAAAAAAAAAAAAAAAAAAAAAAAAAAAAAAAAAAAAAAAAAAAAAAAAAAAAAAAAAAAAAAAAAAAAAAAAAAAAAAAAAAAAAAAAAAAAAAAAAAAAAAAAAAAAAAAAAAAAAAAAAAAAAAAAAAAAAAAAAAAAAAAAAAAAAAAAAAAAAAAAAAAAAAAAAAAAAAAAAAAAAAAAAAAAAAAAAAAAAAAAAAAAAAAAAAAAAAAAAAAAAAAAAAAAAAAAAAAAAAAAAAAAAAAAAAAAAAAAAAAAAAAAAAAAAAAAAAAAAAAAAAAAAAAAAAAAAAAAAAAAAAAAAAAAAAAAAAAAAAAAAAAAAAAAAAAAAAAAAAAAAAAAAAAAAAAAAAAAAAAAAAAAAAAAAAAAAAAAAAAAAAAAAAAAAAAAAAAAAAAAAAAAAAAAAAAAAAAAAAAAAAAAAAAAAAAAAAAAAAAAAAAAAAAAAAAAAAAAAAAAAAAAAAAAAAAAAPZYQLDdwFrWDmazDC/4v5AS7jk40nfrSBzXk5pAOE4O2wgItHrawb/HuNVAcy3BVEFXViBcaYT/6qTZUGTkHpGLMnY=</c2pa:manifest></metadata><title>The Wolf Pack</title><rect x="0" y="0" width="1080" height="680" rx="0" fill="#F3EFE6"/><g transform="translate(67 60) scale(1.42)" opacity="1" fill="none" stroke="#18263C" stroke-linecap="butt" stroke-linejoin="miter"><path d="M76.997 82.175 A42 42 0 1 0 23.003 82.175" stroke-width="4.8"/><path d="M23.5 37 L35.5 67 L50 43 L64.5 67 L76.5 37" stroke-width="6.9"/></g><path d="M79.122 293.414 75.638 302.325Q75.035 304.0 73.025 304.0H70.546Q69.943 304.0 69.5075 303.5645Q69.072 303.129 69.072 302.526Q69.072 302.191 69.34 301.588L85.755 259.311Q86.626 257.1 88.77 257.1H92.79Q94.934 257.1 95.805 259.311L112.153 301.588Q112.42099999999999 302.191 112.42099999999999 302.526Q112.42099999999999 303.129 111.9855 303.5645Q111.55000000000001 304.0 110.947 304.0H108.468Q106.458 304.0 105.855 302.325L102.37100000000001 293.414ZM100.02600000000001 287.384 90.78 263.465 81.467 287.384ZM141.03000000000003 314.921Q141.03000000000003 315.658 140.49400000000003 316.194Q139.95800000000003 316.73 139.221 316.73H136.74200000000002Q136.00500000000002 316.73 135.46900000000002 316.194Q134.93300000000002 315.658 134.93300000000002 314.921V270.969Q134.93300000000002 270.23199999999997 135.46900000000002 269.69599999999997Q136.00500000000002 269.15999999999997 136.74200000000002 269.15999999999997H139.221Q139.95800000000003 269.15999999999997 140.49400000000003 269.69599999999997Q141.03000000000003 270.23199999999997 141.03000000000003 270.969V273.046Q144.447 268.49 151.41500000000002 268.49Q155.56900000000002 268.49 158.95250000000001 270.433Q162.336 272.376 164.3795 275.994Q166.423 279.612 166.62400000000002 284.436Q166.69100000000003 285.106 166.69100000000003 286.58Q166.69100000000003 288.121 166.62400000000002 288.791Q166.423 293.615 164.3795 297.1995Q162.336 300.784 158.98600000000002 302.727Q155.63600000000002 304.67 151.41500000000002 304.67Q147.663 304.67 145.08350000000002 303.36350000000004Q142.50400000000002 302.057 141.03000000000003 300.114ZM150.745 298.908Q155.10000000000002 298.908 157.67950000000002 296.094Q160.25900000000001 293.28 160.52700000000002 288.456Q160.59400000000002 287.786 160.59400000000002 286.58Q160.59400000000002 285.374 160.52700000000002 284.704Q160.25900000000001 279.88 157.67950000000002 277.06600000000003Q155.10000000000002 274.252 150.745 274.252Q146.591 274.252 143.911 276.8315Q141.23100000000002 279.411 141.03000000000003 283.699L140.96300000000002 286.312L141.03000000000003 288.992Q141.23100000000002 293.682 143.84400000000002 296.295Q146.45700000000002 298.908 150.745 298.908ZM179.287 304.0H176.80800000000002Q176.07100000000003 304.0 175.53500000000003 303.464Q174.99900000000002 302.928 174.99900000000002 302.191V258.239Q174.99900000000002 257.502 175.53500000000003 256.966Q176.07100000000003 256.43 176.80800000000002 256.43H179.287Q180.02400000000003 256.43 180.56 256.966Q181.096 257.502 181.096 258.239V302.191Q181.096 302.928 180.56 303.464Q180.02400000000003 304.0 179.287 304.0ZM211.84900000000002 281.957V281.086Q211.84900000000002 277.803 209.6715 276.02750000000003Q207.494 274.252 204.01000000000002 274.252Q201.33 274.252 199.8225 275.1565Q198.315 276.061 196.97500000000002 277.87Q196.573 278.406 196.104 278.60699999999997Q195.63500000000002 278.808 194.83100000000002 278.808H192.821Q192.084 278.808 191.5145 278.272Q190.94500000000002 277.736 191.012 276.999Q191.21300000000002 274.989 192.98850000000002 273.0125Q194.764 271.036 197.71200000000002 269.76300000000003Q200.66000000000003 268.49 204.01000000000002 268.49Q210.241 268.49 214.0935 271.974Q217.94600000000003 275.45799999999997 217.94600000000003 281.756V302.191Q217.94600000000003 302.928 217.41000000000003 303.464Q216.87400000000002 304.0 216.137 304.0H213.65800000000002Q212.92100000000002 304.0 212.38500000000002 303.464Q211.84900000000002 302.928 211.84900000000002 302.191V299.444Q210.77700000000002 301.856 207.293 303.26300000000003Q203.80900000000003 304.67 200.32500000000002 304.67Q196.90800000000002 304.67 194.228 303.4305Q191.548 302.191 190.10750000000002 300.047Q188.667 297.903 188.667 295.223Q188.667 290.198 192.419 287.3505Q196.17100000000002 284.503 202.40200000000002 283.498ZM211.84900000000002 287.317 203.943 288.59Q199.58800000000002 289.26 197.17600000000002 290.7675Q194.764 292.275 194.764 294.553Q194.764 296.228 196.305 297.568Q197.846 298.908 200.995 298.908Q205.81900000000002 298.908 208.834 296.161Q211.84900000000002 293.414 211.84900000000002 288.992ZM250.84300000000002 293.682Q251.312 292.677 251.781 292.275Q252.25 291.873 253.054 291.873H255.06400000000002Q255.801 291.873 256.337 292.3755Q256.873 292.878 256.873 293.548Q256.873 295.826 255.064 298.439Q253.255 301.052 249.838 302.861Q246.421 304.67 241.798 304.67Q237.041 304.67 233.55700000000002 302.65999999999997Q230.073 300.65 228.197 297.1325Q226.321 293.615 226.12 289.26Q226.053 288.456 226.053 286.178Q226.053 284.57 226.12 283.9Q226.723 277.066 230.743 272.778Q234.763 268.49 241.798 268.49Q246.421 268.49 249.80450000000002 270.2655Q253.18800000000002 272.041 254.9635 274.6205Q256.73900000000003 277.2 256.873 279.478Q256.94 280.215 256.3705 280.751Q255.801 281.287 255.06400000000002 281.287H253.054Q252.25 281.287 251.781 280.885Q251.312 280.483 250.84300000000002 279.478Q248.498 274.252 241.798 274.252Q238.113 274.252 235.36599999999999 276.731Q232.619 279.21 232.217 284.235Q232.15 284.972 232.15 286.647Q232.15 288.188 232.217 288.925Q232.686 293.95 235.3995 296.429Q238.113 298.908 241.798 298.908Q248.498 298.908 250.84300000000002 293.682ZM294.12500000000006 285.441V287.25Q294.12500000000006 287.987 293.58900000000006 288.523Q293.05300000000005 289.059 292.31600000000003 289.059H269.26800000000003V289.461Q269.40200000000004 293.883 271.98150000000004 296.39549999999997Q274.56100000000004 298.908 278.648 298.908Q281.99800000000005 298.908 283.8405 298.03700000000003Q285.68300000000005 297.166 287.15700000000004 295.558Q287.69300000000004 295.022 288.12850000000003 294.821Q288.564 294.62 289.30100000000004 294.62H291.31100000000004Q292.115 294.62 292.651 295.156Q293.187 295.692 293.12 296.429Q292.85200000000003 298.238 291.1435 300.14750000000004Q289.43500000000006 302.057 286.25250000000005 303.36350000000004Q283.07000000000005 304.67 278.648 304.67Q274.36 304.67 271.01 302.6935Q267.66 300.717 265.68350000000004 297.233Q263.70700000000005 293.749 263.305 289.394Q263.17100000000005 287.384 263.17100000000005 286.312Q263.17100000000005 285.24 263.305 283.23Q263.70700000000005 279.076 265.68350000000004 275.726Q267.66 272.376 270.9765 270.433Q274.293 268.49 278.648 268.49Q285.817 268.49 289.971 273.046Q294.12500000000006 277.602 294.12500000000006 285.441ZM288.095 283.431V283.23Q288.095 279.143 285.51550000000003 276.6975Q282.93600000000004 274.252 278.648 274.252Q274.76200000000006 274.252 272.04850000000005 276.731Q269.33500000000004 279.21 269.26800000000003 283.23V283.431ZM333.32000000000005 298.238H336.8710000000001Q337.60800000000006 298.238 338.14400000000006 298.774Q338.68000000000006 299.31 338.68000000000006 300.047V302.191Q338.68000000000006 302.928 338.14400000000006 303.464Q337.60800000000006 304.0 336.8710000000001 304.0H332.6500000000001Q326.95500000000004 304.0 324.2750000000001 301.0185Q321.5950000000001 298.037 321.5950000000001 292.275V274.922H316.63700000000006Q315.9000000000001 274.922 315.3640000000001 274.386Q314.8280000000001 273.85 314.8280000000001 273.113V270.969Q314.8280000000001 270.23199999999997 315.3640000000001 269.69599999999997Q315.9000000000001 269.15999999999997 316.63700000000006 269.15999999999997H321.5950000000001V258.239Q321.5950000000001 257.502 322.1310000000001 256.966Q322.6670000000001 256.43 323.40400000000005 256.43H325.88300000000004Q326.62000000000006 256.43 327.15600000000006 256.966Q327.69200000000006 257.502 327.69200000000006 258.239V269.15999999999997H336.2010000000001Q336.93800000000005 269.15999999999997 337.47400000000005 269.69599999999997Q338.01000000000005 270.23199999999997 338.01000000000005 270.969V273.113Q338.01000000000005 273.85 337.47400000000005 274.386Q336.93800000000005 274.922 336.2010000000001 274.922H327.69200000000006V292.275Q327.69200000000006 295.156 328.8645 296.697Q330.03700000000003 298.238 333.32000000000005 298.238ZM375.6640000000001 286.647Q375.6640000000001 288.255 375.5300000000001 289.729Q374.9270000000001 296.563 370.8065000000001 300.6165Q366.6860000000001 304.67 359.65100000000007 304.67Q352.6160000000001 304.67 348.4955000000001 300.6165Q344.37500000000006 296.563 343.77200000000005 289.729Q343.7050000000001 288.992 343.7050000000001 286.647Q343.7050000000001 284.168 343.77200000000005 283.431Q344.30800000000005 276.597 348.4620000000001 272.5435Q352.6160000000001 268.49 359.65100000000007 268.49Q366.6860000000001 268.49 370.8400000000001 272.5435Q374.9940000000001 276.597 375.5300000000001 283.431Q375.6640000000001 284.905 375.6640000000001 286.647ZM359.65100000000007 274.252Q355.1620000000001 274.252 352.7165000000001 276.865Q350.2710000000001 279.478 349.8690000000001 283.766Q349.8020000000001 284.57 349.8020000000001 286.647Q349.8020000000001 288.657 349.8690000000001 289.394Q350.2710000000001 293.682 352.7165000000001 296.295Q355.1620000000001 298.908 359.65100000000007 298.908Q364.1400000000001 298.908 366.5855000000001 296.295Q369.03100000000006 293.682 369.4330000000001 289.394Q369.56700000000006 287.92 369.56700000000006 286.647Q369.56700000000006 285.374 369.4330000000001 283.766Q369.03100000000006 279.478 366.5855000000001 276.865Q364.1400000000001 274.252 359.65100000000007 274.252ZM421.0900000000001 281.957V281.086Q421.0900000000001 277.803 418.9125000000001 276.02750000000003Q416.73500000000007 274.252 413.2510000000001 274.252Q410.5710000000001 274.252 409.0635000000001 275.1565Q407.5560000000001 276.061 406.21600000000007 277.87Q405.8140000000001 278.406 405.3450000000001 278.60699999999997Q404.8760000000001 278.808 404.07200000000006 278.808H402.06200000000007Q401.3250000000001 278.808 400.7555000000001 278.272Q400.1860000000001 277.736 400.2530000000001 276.999Q400.45400000000006 274.989 402.2295000000001 273.0125Q404.0050000000001 271.036 406.9530000000001 269.76300000000003Q409.90100000000007 268.49 413.2510000000001 268.49Q419.4820000000001 268.49 423.33450000000005 271.974Q427.18700000000007 275.45799999999997 427.18700000000007 281.756V302.191Q427.18700000000007 302.928 426.65100000000007 303.464Q426.11500000000007 304.0 425.3780000000001 304.0H422.89900000000006Q422.1620000000001 304.0 421.6260000000001 303.464Q421.0900000000001 302.928 421.0900000000001 302.191V299.444Q420.0180000000001 301.856 416.5340000000001 303.26300000000003Q413.05000000000007 304.67 409.5660000000001 304.67Q406.14900000000006 304.67 403.46900000000005 303.4305Q400.7890000000001 302.191 399.34850000000006 300.047Q397.9080000000001 297.903 397.9080000000001 295.223Q397.9080000000001 290.198 401.6600000000001 287.3505Q405.4120000000001 284.503 411.6430000000001 283.498ZM421.0900000000001 287.317 413.1840000000001 288.59Q408.82900000000006 289.26 406.4170000000001 290.7675Q404.0050000000001 292.275 404.0050000000001 294.553Q404.0050000000001 296.228 405.5460000000001 297.568Q407.0870000000001 298.908 410.2360000000001 298.908Q415.06000000000006 298.908 418.07500000000005 296.161Q421.0900000000001 293.414 421.0900000000001 288.992ZM435.56200000000007 278.54Q435.56200000000007 275.793 437.03600000000006 273.515Q438.51000000000005 271.23699999999997 441.4245000000001 269.8635Q444.33900000000006 268.49 448.56000000000006 268.49Q452.71400000000006 268.49 455.72900000000004 269.696Q458.7440000000001 270.902 460.3185000000001 272.711Q461.8930000000001 274.52 461.8930000000001 276.195Q461.8930000000001 276.865 461.3570000000001 277.3675Q460.8210000000001 277.87 460.08400000000006 277.87H457.87300000000005Q456.6000000000001 277.87 455.86300000000006 276.932Q453.78600000000006 274.252 448.56000000000006 274.252Q445.47800000000007 274.252 443.5685000000001 275.39099999999996Q441.65900000000005 276.53 441.65900000000005 278.54Q441.65900000000005 280.215 442.5970000000001 281.086Q443.5350000000001 281.957 445.41100000000006 282.493Q447.2870000000001 283.029 452.0440000000001 284.101Q457.94000000000005 285.374 460.4190000000001 287.987Q462.8980000000001 290.6 462.8980000000001 294.352Q462.8980000000001 297.099 461.18950000000007 299.44399999999996Q459.48100000000005 301.789 456.2985000000001 303.22950000000003Q453.1160000000001 304.67 448.8950000000001 304.67Q444.7410000000001 304.67 441.5585000000001 303.36350000000004Q438.3760000000001 302.057 436.63400000000007 300.18100000000004Q434.89200000000005 298.305 434.89200000000005 296.63Q434.89200000000005 295.96 435.42800000000005 295.4575Q435.96400000000006 294.955 436.7010000000001 294.955H439.11300000000006Q439.71600000000007 294.955 440.18500000000006 295.089Q440.65400000000005 295.223 441.0560000000001 295.826Q443.26700000000005 298.908 448.8950000000001 298.908Q452.0440000000001 298.908 454.4225000000001 297.6015Q456.8010000000001 296.295 456.8010000000001 294.352Q456.8010000000001 292.744 455.6285000000001 291.77250000000004Q454.4560000000001 290.801 452.24500000000006 290.1645Q450.03400000000005 289.528 445.34400000000005 288.523Q435.56200000000007 286.446 435.56200000000007 278.54ZM476.9680000000001 302.191Q476.9680000000001 302.928 476.4320000000001 303.464Q475.8960000000001 304.0 475.15900000000005 304.0H472.68000000000006Q471.94300000000004 304.0 471.40700000000004 303.464Q470.87100000000004 302.928 470.87100000000004 302.191V258.239Q470.87100000000004 257.502 471.40700000000004 256.966Q471.94300000000004 256.43 472.68000000000006 256.43H475.15900000000005Q475.8960000000001 256.43 476.4320000000001 256.966Q476.9680000000001 257.502 476.9680000000001 258.239V280.416L490.0330000000001 270.299Q490.77000000000004 269.763 491.30600000000004 269.4615Q491.84200000000004 269.15999999999997 492.6460000000001 269.15999999999997H495.99600000000004Q496.66600000000005 269.15999999999997 497.13500000000005 269.629Q497.60400000000004 270.098 497.60400000000004 270.76800000000003Q497.60400000000004 271.505 496.8670000000001 272.108L480.7200000000001 284.704L498.5420000000001 301.119Q499.21200000000005 301.789 499.21200000000005 302.392Q499.21200000000005 303.062 498.74300000000005 303.531Q498.27400000000006 304.0 497.60400000000004 304.0H494.45500000000004Q493.04800000000006 304.0 491.7080000000001 302.861L476.9680000000001 289.26ZM512.4110000000001 297.702V302.191Q512.4110000000001 302.928 511.87500000000006 303.464Q511.33900000000006 304.0 510.6020000000001 304.0H506.11300000000006Q505.3760000000001 304.0 504.8400000000001 303.464Q504.3040000000001 302.928 504.3040000000001 302.191V297.702Q504.3040000000001 296.965 504.8400000000001 296.429Q505.3760000000001 295.893 506.11300000000006 295.893H510.6020000000001Q511.33900000000006 295.893 511.87500000000006 296.429Q512.4110000000001 296.965 512.4110000000001 297.702Z" fill="#18263C"/><path d="M79.122 375.414 75.638 384.325Q75.035 386.0 73.025 386.0H70.546Q69.943 386.0 69.5075 385.5645Q69.072 385.129 69.072 384.526Q69.072 384.191 69.34 383.588L85.755 341.311Q86.626 339.1 88.77 339.1H92.79Q94.934 339.1 95.805 341.311L112.153 383.588Q112.42099999999999 384.191 112.42099999999999 384.526Q112.42099999999999 385.129 111.9855 385.5645Q111.55000000000001 386.0 110.947 386.0H108.468Q106.458 386.0 105.855 384.325L102.37100000000001 375.414ZM100.02600000000001 369.384 90.78 345.465 81.467 369.384ZM154.43 352.969V355.113Q154.43 355.85 153.894 356.386Q153.358 356.922 152.621 356.922H148.735Q144.983 356.922 143.00650000000002 358.8985Q141.03000000000003 360.875 141.03000000000003 364.627V384.191Q141.03000000000003 384.928 140.49400000000003 385.464Q139.95800000000003 386.0 139.221 386.0H136.74200000000002Q136.00500000000002 386.0 135.46900000000002 385.464Q134.93300000000002 384.928 134.93300000000002 384.191V352.969Q134.93300000000002 352.23199999999997 135.46900000000002 351.69599999999997Q136.00500000000002 351.15999999999997 136.74200000000002 351.15999999999997H139.221Q139.95800000000003 351.15999999999997 140.49400000000003 351.69599999999997Q141.03000000000003 352.23199999999997 141.03000000000003 352.969V355.046Q142.37 353.036 144.246 352.09799999999996Q146.122 351.15999999999997 149.13700000000003 351.15999999999997H152.621Q153.358 351.15999999999997 153.894 351.69599999999997Q154.43 352.23199999999997 154.43 352.969ZM189.471 367.441V369.25Q189.471 369.987 188.935 370.523Q188.399 371.059 187.662 371.059H164.614V371.461Q164.74800000000002 375.883 167.32750000000001 378.39549999999997Q169.907 380.908 173.994 380.908Q177.34400000000002 380.908 179.18650000000002 380.03700000000003Q181.029 379.166 182.50300000000001 377.558Q183.03900000000002 377.022 183.47450000000003 376.821Q183.91000000000003 376.62 184.64700000000002 376.62H186.657Q187.461 376.62 187.997 377.156Q188.53300000000002 377.692 188.466 378.429Q188.198 380.238 186.48950000000002 382.14750000000004Q184.781 384.057 181.5985 385.36350000000004Q178.416 386.67 173.994 386.67Q169.70600000000002 386.67 166.356 384.6935Q163.006 382.717 161.02949999999998 379.233Q159.053 375.749 158.651 371.394Q158.517 369.384 158.517 368.312Q158.517 367.24 158.651 365.23Q159.053 361.076 161.02949999999998 357.726Q163.006 354.376 166.3225 352.433Q169.639 350.49 173.994 350.49Q181.163 350.49 185.317 355.046Q189.471 359.602 189.471 367.441ZM183.441 365.431V365.23Q183.441 361.143 180.8615 358.6975Q178.282 356.252 173.994 356.252Q170.108 356.252 167.3945 358.731Q164.681 361.21 164.614 365.23V365.431ZM218.281 363.957V363.086Q218.281 359.803 216.1035 358.02750000000003Q213.926 356.252 210.442 356.252Q207.762 356.252 206.2545 357.1565Q204.74699999999999 358.061 203.407 359.87Q203.005 360.406 202.536 360.60699999999997Q202.067 360.808 201.263 360.808H199.253Q198.516 360.808 197.94650000000001 360.272Q197.377 359.736 197.444 358.999Q197.645 356.989 199.4205 355.0125Q201.196 353.036 204.144 351.76300000000003Q207.09199999999998 350.49 210.442 350.49Q216.673 350.49 220.5255 353.974Q224.378 357.45799999999997 224.378 363.756V384.191Q224.378 384.928 223.84199999999998 385.464Q223.30599999999998 386.0 222.569 386.0H220.09Q219.353 386.0 218.817 385.464Q218.281 384.928 218.281 384.191V381.444Q217.209 383.856 213.725 385.26300000000003Q210.24099999999999 386.67 206.757 386.67Q203.34 386.67 200.66 385.4305Q197.98 384.191 196.53949999999998 382.047Q195.099 379.903 195.099 377.223Q195.099 372.198 198.851 369.3505Q202.603 366.503 208.834 365.498ZM218.281 369.317 210.375 370.59Q206.02 371.26 203.608 372.7675Q201.196 374.275 201.196 376.553Q201.196 378.228 202.737 379.568Q204.278 380.908 207.427 380.908Q212.251 380.908 215.26600000000002 378.161Q218.281 375.414 218.281 370.992ZM232.753 360.54Q232.753 357.793 234.22699999999998 355.515Q235.701 353.23699999999997 238.6155 351.8635Q241.53 350.49 245.75099999999998 350.49Q249.905 350.49 252.92000000000002 351.696Q255.935 352.902 257.5095 354.711Q259.084 356.52 259.084 358.195Q259.084 358.865 258.548 359.3675Q258.012 359.87 257.275 359.87H255.064Q253.791 359.87 253.054 358.932Q250.977 356.252 245.75099999999998 356.252Q242.66899999999998 356.252 240.7595 357.39099999999996Q238.85 358.53 238.85 360.54Q238.85 362.215 239.788 363.086Q240.726 363.957 242.60199999999998 364.493Q244.47799999999998 365.029 249.23499999999999 366.101Q255.131 367.374 257.61 369.987Q260.089 372.6 260.089 376.352Q260.089 379.099 258.3805 381.44399999999996Q256.67199999999997 383.789 253.48949999999996 385.22950000000003Q250.307 386.67 246.08599999999998 386.67Q241.932 386.67 238.74949999999998 385.36350000000004Q235.56699999999998 384.057 233.825 382.18100000000004Q232.083 380.305 232.083 378.63Q232.083 377.96 232.619 377.4575Q233.155 376.955 233.892 376.955H236.304Q236.90699999999998 376.955 237.37599999999998 377.089Q237.845 377.223 238.24699999999999 377.826Q240.458 380.908 246.08599999999998 380.908Q249.23499999999999 380.908 251.6135 379.6015Q253.992 378.295 253.992 376.352Q253.992 374.744 252.8195 373.77250000000004Q251.647 372.801 249.43599999999998 372.1645Q247.225 371.528 242.535 370.523Q232.753 368.446 232.753 360.54ZM298.346 368.647Q298.346 370.255 298.212 371.729Q297.609 378.563 293.4885 382.6165Q289.368 386.67 282.33299999999997 386.67Q275.298 386.67 271.1775 382.6165Q267.05699999999996 378.563 266.45399999999995 371.729Q266.387 370.992 266.387 368.647Q266.387 366.168 266.45399999999995 365.431Q266.98999999999995 358.597 271.144 354.5435Q275.298 350.49 282.33299999999997 350.49Q289.368 350.49 293.522 354.5435Q297.676 358.597 298.212 365.431Q298.346 366.905 298.346 368.647ZM282.33299999999997 356.252Q277.844 356.252 275.3985 358.865Q272.953 361.478 272.551 365.766Q272.484 366.57 272.484 368.647Q272.484 370.657 272.551 371.394Q272.953 375.682 275.3985 378.295Q277.844 380.908 282.33299999999997 380.908Q286.822 380.908 289.2675 378.295Q291.71299999999997 375.682 292.115 371.394Q292.24899999999997 369.92 292.24899999999997 368.647Q292.24899999999997 367.374 292.115 365.766Q291.71299999999997 361.478 289.2675 358.865Q286.822 356.252 282.33299999999997 356.252ZM335.866 386.0H333.38699999999994Q332.65 386.0 332.114 385.464Q331.578 384.928 331.578 384.191V366.503Q331.578 361.478 329.09899999999993 358.865Q326.61999999999995 356.252 322.198 356.252Q317.84299999999996 356.252 315.3305 358.865Q312.818 361.478 312.818 366.503V384.191Q312.818 384.928 312.282 385.464Q311.746 386.0 311.00899999999996 386.0H308.53Q307.79299999999995 386.0 307.25699999999995 385.464Q306.72099999999995 384.928 306.72099999999995 384.191V352.969Q306.72099999999995 352.23199999999997 307.25699999999995 351.69599999999997Q307.79299999999995 351.15999999999997 308.53 351.15999999999997H311.00899999999996Q311.746 351.15999999999997 312.282 351.69599999999997Q312.818 352.23199999999997 312.818 352.969V355.046Q314.292 353.103 316.87149999999997 351.79650000000004Q319.45099999999996 350.49 323.203 350.49Q327.424 350.49 330.707 352.299Q333.98999999999995 354.108 335.8325 357.4915Q337.67499999999995 360.875 337.67499999999995 365.498V384.191Q337.67499999999995 384.928 337.13899999999995 385.464Q336.60299999999995 386.0 335.866 386.0ZM378.47799999999995 380.238H382.029Q382.76599999999996 380.238 383.30199999999996 380.774Q383.83799999999997 381.31 383.83799999999997 382.047V384.191Q383.83799999999997 384.928 383.30199999999996 385.464Q382.76599999999996 386.0 382.029 386.0H377.808Q372.11299999999994 386.0 369.433 383.0185Q366.753 380.037 366.753 374.275V356.922H361.79499999999996Q361.058 356.922 360.522 356.386Q359.986 355.85 359.986 355.113V352.969Q359.986 352.23199999999997 360.522 351.69599999999997Q361.058 351.15999999999997 361.79499999999996 351.15999999999997H366.753V340.239Q366.753 339.502 367.289 338.966Q367.825 338.43 368.56199999999995 338.43H371.04099999999994Q371.77799999999996 338.43 372.31399999999996 338.966Q372.84999999999997 339.502 372.84999999999997 340.239V351.15999999999997H381.359Q382.09599999999995 351.15999999999997 382.63199999999995 351.69599999999997Q383.16799999999995 352.23199999999997 383.16799999999995 352.969V355.113Q383.16799999999995 355.85 382.63199999999995 356.386Q382.09599999999995 356.922 381.359 356.922H372.84999999999997V374.275Q372.84999999999997 377.156 374.0224999999999 378.697Q375.19499999999994 380.238 378.47799999999995 380.238ZM420.822 368.647Q420.822 370.255 420.688 371.729Q420.085 378.563 415.9645 382.6165Q411.844 386.67 404.80899999999997 386.67Q397.774 386.67 393.6535 382.6165Q389.53299999999996 378.563 388.92999999999995 371.729Q388.863 370.992 388.863 368.647Q388.863 366.168 388.92999999999995 365.431Q389.46599999999995 358.597 393.62 354.5435Q397.774 350.49 404.80899999999997 350.49Q411.844 350.49 415.998 354.5435Q420.152 358.597 420.688 365.431Q420.822 366.905 420.822 368.647ZM404.80899999999997 356.252Q400.32 356.252 397.8745 358.865Q395.429 361.478 395.027 365.766Q394.96 366.57 394.96 368.647Q394.96 370.657 395.027 371.394Q395.429 375.682 397.8745 378.295Q400.32 380.908 404.80899999999997 380.908Q409.298 380.908 411.7435 378.295Q414.18899999999996 375.682 414.591 371.394Q414.72499999999997 369.92 414.72499999999997 368.647Q414.72499999999997 367.374 414.591 365.766Q414.18899999999996 361.478 411.7435 358.865Q409.298 356.252 404.80899999999997 356.252ZM465.042 352.969V355.113Q465.042 355.85 464.506 356.386Q463.96999999999997 356.922 463.233 356.922H459.347Q455.59499999999997 356.922 453.6185 358.8985Q451.642 360.875 451.642 364.627V384.191Q451.642 384.928 451.106 385.464Q450.57 386.0 449.83299999999997 386.0H447.354Q446.61699999999996 386.0 446.08099999999996 385.464Q445.54499999999996 384.928 445.54499999999996 384.191V352.969Q445.54499999999996 352.23199999999997 446.08099999999996 351.69599999999997Q446.61699999999996 351.15999999999997 447.354 351.15999999999997H449.83299999999997Q450.57 351.15999999999997 451.106 351.69599999999997Q451.642 352.23199999999997 451.642 352.969V355.046Q452.98199999999997 353.036 454.85799999999995 352.09799999999996Q456.734 351.15999999999997 459.74899999999997 351.15999999999997H463.233Q463.96999999999997 351.15999999999997 464.506 351.69599999999997Q465.042 352.23199999999997 465.042 352.969ZM500.083 367.441V369.25Q500.083 369.987 499.547 370.523Q499.011 371.059 498.274 371.059H475.226V371.461Q475.36 375.883 477.9395 378.39549999999997Q480.519 380.908 484.606 380.908Q487.956 380.908 489.7985 380.03700000000003Q491.641 379.166 493.115 377.558Q493.651 377.022 494.0865 376.821Q494.522 376.62 495.259 376.62H497.269Q498.073 376.62 498.609 377.156Q499.145 377.692 499.078 378.429Q498.81 380.238 497.1015 382.14750000000004Q495.39300000000003 384.057 492.2105 385.36350000000004Q489.028 386.67 484.606 386.67Q480.318 386.67 476.96799999999996 384.6935Q473.618 382.717 471.6415 379.233Q469.665 375.749 469.263 371.394Q469.129 369.384 469.129 368.312Q469.129 367.24 469.263 365.23Q469.665 361.076 471.6415 357.726Q473.618 354.376 476.93449999999996 352.433Q480.251 350.49 484.606 350.49Q491.775 350.49 495.929 355.046Q500.083 359.602 500.083 367.441ZM494.053 365.431V365.23Q494.053 361.143 491.4735 358.6975Q488.894 356.252 484.606 356.252Q480.72 356.252 478.0065 358.731Q475.293 361.21 475.226 365.23V365.431ZM522.9300000000001 380.238H526.481Q527.2180000000001 380.238 527.754 380.774Q528.29 381.31 528.29 382.047V384.191Q528.29 384.928 527.754 385.464Q527.2180000000001 386.0 526.481 386.0H522.26Q516.565 386.0 513.885 383.0185Q511.20500000000004 380.037 511.20500000000004 374.275V356.922H506.247Q505.51000000000005 356.922 504.97400000000005 356.386Q504.43800000000005 355.85 504.43800000000005 355.113V352.969Q504.43800000000005 352.23199999999997 504.97400000000005 351.69599999999997Q505.51000000000005 351.15999999999997 506.247 351.15999999999997H511.20500000000004V340.239Q511.20500000000004 339.502 511.74100000000004 338.966Q512.277 338.43 513.014 338.43H515.493Q516.23 338.43 516.7660000000001 338.966Q517.302 339.502 517.302 340.239V351.15999999999997H525.811Q526.548 351.15999999999997 527.0840000000001 351.69599999999997Q527.62 352.23199999999997 527.62 352.969V355.113Q527.62 355.85 527.0840000000001 356.386Q526.548 356.922 525.811 356.922H517.302V374.275Q517.302 377.156 518.4745 378.697Q519.647 380.238 522.9300000000001 380.238ZM536.464 351.15999999999997H538.943Q539.6800000000001 351.15999999999997 540.2160000000001 351.69599999999997Q540.7520000000001 352.23199999999997 540.7520000000001 352.969V370.657Q540.7520000000001 375.749 543.0635 378.3285Q545.375 380.908 549.797 380.908Q554.085 380.908 556.4635000000001 378.295Q558.842 375.682 558.842 370.657V352.969Q558.842 352.23199999999997 559.3779999999999 351.69599999999997Q559.914 351.15999999999997 560.6510000000001 351.15999999999997H563.13Q563.8670000000001 351.15999999999997 564.403 351.69599999999997Q564.9390000000001 352.23199999999997 564.9390000000001 352.969V384.191Q564.9390000000001 384.928 564.403 385.464Q563.8670000000001 386.0 563.13 386.0H560.6510000000001Q559.914 386.0 559.3779999999999 385.464Q558.842 384.928 558.842 384.191V382.114Q555.3580000000001 386.67 548.792 386.67Q542.36 386.67 538.5075 382.65Q534.6550000000001 378.63 534.6550000000001 371.662V352.969Q534.6550000000001 352.23199999999997 535.191 351.69599999999997Q535.7270000000001 351.15999999999997 536.464 351.15999999999997ZM594.4860000000001 352.969V355.113Q594.4860000000001 355.85 593.95 356.386Q593.4140000000001 356.922 592.677 356.922H588.791Q585.0390000000001 356.922 583.0625 358.8985Q581.086 360.875 581.086 364.627V384.191Q581.086 384.928 580.55 385.464Q580.014 386.0 579.277 386.0H576.798Q576.061 386.0 575.5250000000001 385.464Q574.989 384.928 574.989 384.191V352.969Q574.989 352.23199999999997 575.5250000000001 351.69599999999997Q576.061 351.15999999999997 576.798 351.15999999999997H579.277Q580.014 351.15999999999997 580.55 351.69599999999997Q581.086 352.23199999999997 581.086 352.969V355.046Q582.426 353.036 584.3020000000001 352.09799999999996Q586.1780000000001 351.15999999999997 589.1930000000001 351.15999999999997H592.677Q593.4140000000001 351.15999999999997 593.95 351.69599999999997Q594.4860000000001 352.23199999999997 594.4860000000001 352.969ZM629.46 386.0H626.9810000000001Q626.244 386.0 625.7080000000001 385.464Q625.172 384.928 625.172 384.191V366.503Q625.172 361.478 622.693 358.865Q620.214 356.252 615.792 356.252Q611.4370000000001 356.252 608.9245000000001 358.865Q606.412 361.478 606.412 366.503V384.191Q606.412 384.928 605.876 385.464Q605.34 386.0 604.6030000000001 386.0H602.124Q601.3870000000001 386.0 600.8510000000001 385.464Q600.315 384.928 600.315 384.191V352.969Q600.315 352.23199999999997 600.8510000000001 351.69599999999997Q601.3870000000001 351.15999999999997 602.124 351.15999999999997H604.6030000000001Q605.34 351.15999999999997 605.876 351.69599999999997Q606.412 352.23199999999997 606.412 352.969V355.046Q607.8860000000001 353.103 610.4655 351.79650000000004Q613.0450000000001 350.49 616.797 350.49Q621.018 350.49 624.301 352.299Q627.5840000000001 354.108 629.4265 357.4915Q631.2690000000001 360.875 631.2690000000001 365.498V384.191Q631.2690000000001 384.928 630.7330000000002 385.464Q630.1970000000001 386.0 629.46 386.0ZM648.287 379.702V384.191Q648.287 384.928 647.751 385.464Q647.215 386.0 646.4780000000001 386.0H641.989Q641.2520000000001 386.0 640.7160000000001 385.464Q640.1800000000001 384.928 640.1800000000001 384.191V379.702Q640.1800000000001 378.965 640.7160000000001 378.429Q641.2520000000001 377.893 641.989 377.893H646.4780000000001Q647.215 377.893 647.751 378.429Q648.287 378.965 648.287 379.702Z" fill="#18263C"/><path d="M72 515L1008 515" fill="none" stroke="#18263C" stroke-width="2"/><path d="M80.76 578.0H77.088V563.912H72.456V560.864H85.392V563.912H80.76ZM102.048 578.0H98.424V570.608H91.632V578.0H88.008V560.864H91.632V567.584H98.424V560.864H102.048ZM116.232 578.0H106.368V560.864H116.232V563.84H109.992V567.608H115.8V570.584H109.992V575.0H116.232ZM147.096 560.864 142.72799999999998 578.0H138.6L136.272 569.0Q136.2 568.736 136.09199999999998 568.208Q135.98399999999998 567.68 135.85199999999998 567.056Q135.72 566.432 135.624 565.8679999999999Q135.528 565.304 135.48 564.992Q135.456 565.304 135.34799999999998 565.8679999999999Q135.23999999999998 566.432 135.12 567.044Q135.0 567.656 134.88 568.1959999999999Q134.76 568.736 134.688 569.024L132.384 578.0H128.256L123.88799999999999 560.864H127.46399999999998L129.648 570.224Q129.792 570.776 129.95999999999998 571.616Q130.128 572.456 130.272 573.296Q130.416 574.136 130.488 574.712Q130.56 574.112 130.704 573.284Q130.84799999999998 572.456 131.004 571.6759999999999Q131.16 570.896 131.28 570.464L133.77599999999998 560.864H137.208L139.70399999999998 570.464Q139.82399999999998 570.872 139.98 571.664Q140.136 572.456 140.27999999999997 573.296Q140.42399999999998 574.136 140.49599999999998 574.712Q140.56799999999998 574.112 140.712 573.284Q140.856 572.456 141.036 571.616Q141.21599999999998 570.776 141.33599999999998 570.224L143.51999999999998 560.864ZM164.736 569.408Q164.736 572.072 163.86 574.052Q162.984 576.032 161.18400000000003 577.136Q159.38400000000001 578.24 156.576 578.24Q153.792 578.24 151.98000000000002 577.136Q150.168 576.032 149.292 574.04Q148.416 572.048 148.416 569.384Q148.416 566.744 149.292 564.764Q150.168 562.784 151.98000000000002 561.692Q153.792 560.6 156.6 560.6Q159.38400000000001 560.6 161.19600000000003 561.692Q163.008 562.784 163.872 564.764Q164.736 566.744 164.736 569.408ZM152.28 569.408Q152.28 572.096 153.3 573.62Q154.32 575.144 156.576 575.144Q158.88 575.144 159.876 573.62Q160.872 572.096 160.872 569.408Q160.872 566.72 159.876 565.184Q158.88 563.648 156.6 563.648Q154.32 563.648 153.3 565.184Q152.28 566.72 152.28 569.408ZM168.12 578.0V560.864H171.792V574.976H178.728V578.0ZM185.232 578.0H181.656V560.864H191.472V563.84H185.232V568.256H191.04000000000002V571.232H185.232ZM206.328 560.864Q209.64000000000001 560.864 211.224 562.244Q212.808 563.624 212.808 566.144Q212.808 567.656 212.184 568.976Q211.56 570.296 210.108 571.1120000000001Q208.656 571.928 206.184 571.928H204.624V578.0H200.952V560.864ZM206.208 563.864H204.624V568.904H205.848Q207.36 568.904 208.236 568.304Q209.112 567.704 209.112 566.264Q209.112 565.112 208.404 564.488Q207.696 563.864 206.208 563.864ZM226.464 578.0 225.144 573.968H219.096L217.776 578.0H213.816L219.84 560.792H224.352L230.424 578.0ZM223.104 567.176Q223.008 566.816 222.804 566.096Q222.6 565.376 222.40800000000002 564.62Q222.216 563.864 222.096 563.384Q222.0 563.936 221.82 564.644Q221.64000000000001 565.352 221.472 566.0360000000001Q221.304 566.72 221.184 567.176L219.96 570.896H224.304ZM239.976 563.672Q237.912 563.672 236.724 565.22Q235.536 566.768 235.536 569.48Q235.536 572.192 236.676 573.692Q237.816 575.192 240.12 575.192Q241.24800000000002 575.192 242.29200000000003 574.928Q243.336 574.664 244.392 574.256V577.376Q242.352 578.24 239.71200000000002 578.24Q236.976 578.24 235.212 577.148Q233.448 576.056 232.596 574.076Q231.744 572.096 231.744 569.456Q231.744 566.864 232.704 564.8720000000001Q233.66400000000002 562.88 235.512 561.752Q237.36 560.624 240.024 560.624Q241.296 560.624 242.60399999999998 560.9000000000001Q243.912 561.176 245.088 561.752L243.888 564.68Q243.024 564.272 242.05200000000002 563.972Q241.08 563.672 239.976 563.672ZM261.768 578.0H257.64L253.152 570.776L251.61599999999999 571.88V578.0H247.992V560.864H251.61599999999999V568.712Q251.976 568.208 252.336 567.704Q252.696 567.2 253.05599999999998 566.696L257.688 560.864H261.71999999999997L255.744 568.448Z" fill="#18263C"/><path d="M75.927 624.0H74.037V609.006H82.416V610.665H75.927V615.978H82.017V617.637H75.927ZM94.47 618.351Q94.47 621.144 93.05250000000001 622.677Q91.635 624.21 89.22 624.21Q87.729 624.21 86.5635 623.5275Q85.398 622.845 84.726 621.5325Q84.054 620.22 84.054 618.351Q84.054 615.558 85.461 614.046Q86.868 612.534 89.283 612.534Q90.816 612.534 91.98150000000001 613.2165Q93.147 613.899 93.80850000000001 615.1904999999999Q94.47 616.482 94.47 618.351ZM85.965 618.351Q85.965 620.346 86.7525 621.5115000000001Q87.54 622.677 89.262 622.677Q90.963 622.677 91.761 621.5115000000001Q92.559 620.346 92.559 618.351Q92.559 616.356 91.761 615.222Q90.963 614.088 89.241 614.088Q87.519 614.088 86.742 615.222Q85.965 616.356 85.965 618.351ZM106.797 612.744V624.0H105.285L105.012 622.509H104.928Q104.382 623.391 103.416 623.8005Q102.45 624.21 101.358 624.21Q99.321 624.21 98.292 623.2335Q97.263 622.257 97.263 620.115V612.744H99.132V619.989Q99.132 622.677 101.631 622.677Q103.5 622.677 104.2245 621.627Q104.949 620.577 104.949 618.603V612.744ZM115.785 612.534Q117.80099999999999 612.534 118.82999999999998 613.5105Q119.859 614.487 119.859 616.671V624.0H118.032V616.797Q118.032 614.088 115.512 614.088Q113.643 614.088 112.929 615.1379999999999Q112.21499999999999 616.188 112.21499999999999 618.162V624.0H110.36699999999999V612.744H111.85799999999999L112.131 614.277H112.23599999999999Q112.782 613.395 113.74799999999999 612.9645Q114.714 612.534 115.785 612.534ZM127.33500000000001 624.21Q125.235 624.21 123.975 622.7505000000001Q122.715 621.291 122.715 618.393Q122.715 615.495 123.9855 614.0145Q125.256 612.534 127.35600000000001 612.534Q128.65800000000002 612.534 129.4875 613.017Q130.317 613.5 130.842 614.193H130.96800000000002Q130.947 613.92 130.8945 613.3845Q130.842 612.849 130.842 612.534V608.04H132.69V624.0H131.199L130.92600000000002 622.488H130.842Q130.338 623.202 129.498 623.706Q128.65800000000002 624.21 127.33500000000001 624.21ZM127.629 622.677Q129.41400000000002 622.677 130.13850000000002 621.7005Q130.863 620.724 130.863 618.75V618.414Q130.863 616.314 130.17000000000002 615.1904999999999Q129.477 614.067 127.608 614.067Q126.117 614.067 125.3715 615.2535Q124.626 616.44 124.626 618.435Q124.626 620.451 125.3715 621.5640000000001Q126.117 622.677 127.629 622.677ZM137.20499999999998 608.523Q137.625 608.523 137.95049999999998 608.8065Q138.27599999999998 609.09 138.27599999999998 609.699Q138.27599999999998 610.287 137.95049999999998 610.581Q137.625 610.875 137.20499999999998 610.875Q136.743 610.875 136.428 610.581Q136.113 610.287 136.113 609.699Q136.113 609.09 136.428 608.8065Q136.743 608.523 137.20499999999998 608.523ZM138.108 612.744V624.0H136.26V612.744ZM147.096 612.534Q149.112 612.534 150.14100000000002 613.5105Q151.17000000000002 614.487 151.17000000000002 616.671V624.0H149.343V616.797Q149.343 614.088 146.823 614.088Q144.954 614.088 144.24 615.1379999999999Q143.526 616.188 143.526 618.162V624.0H141.678V612.744H143.169L143.442 614.277H143.547Q144.093 613.395 145.059 612.9645Q146.025 612.534 147.096 612.534ZM158.64600000000002 612.534Q159.75900000000001 612.534 160.6515 612.954Q161.544 613.374 162.174 614.235H162.279L162.531 612.744H164.001V624.189Q164.001 626.604 162.7725 627.822Q161.544 629.04 158.961 629.04Q156.483 629.04 154.90800000000002 628.326V626.625Q156.567 627.507 159.066 627.507Q160.51500000000001 627.507 161.3445 626.6565Q162.174 625.806 162.174 624.336V623.895Q162.174 623.643 162.195 623.1705Q162.216 622.698 162.23700000000002 622.509H162.15300000000002Q161.019 624.21 158.667 624.21Q156.483 624.21 155.2545 622.677Q154.026 621.144 154.026 618.393Q154.026 615.705 155.2545 614.1195Q156.483 612.534 158.64600000000002 612.534ZM158.898 614.088Q157.491 614.088 156.714 615.2115Q155.937 616.335 155.937 618.414Q155.937 620.493 156.70350000000002 621.5955Q157.47 622.698 158.94 622.698Q160.64100000000002 622.698 161.418 621.7845Q162.19500000000002 620.871 162.19500000000002 618.834V618.393Q162.19500000000002 616.083 161.39700000000002 615.0854999999999Q160.59900000000002 614.088 158.898 614.088ZM180.36 620.892Q180.36 622.53 179.142 623.37Q177.924 624.21 175.866 624.21Q174.69 624.21 173.8395 624.021Q172.989 623.832 172.33800000000002 623.496V621.816Q173.01000000000002 622.152 173.96550000000002 622.4355Q174.92100000000002 622.719 175.90800000000002 622.719Q177.315 622.719 177.945 622.2675Q178.57500000000002 621.816 178.57500000000002 621.06Q178.57500000000002 620.64 178.344 620.304Q178.113 619.968 177.5145 619.6320000000001Q176.916 619.296 175.803 618.876Q174.711 618.456 173.93400000000003 618.0360000000001Q173.157 617.616 172.73700000000002 617.028Q172.317 616.44 172.317 615.516Q172.317 614.088 173.48250000000002 613.3109999999999Q174.648 612.534 176.538 612.534Q177.567 612.534 178.4595 612.7335Q179.352 612.933 180.12900000000002 613.29L179.49900000000002 614.76Q178.785 614.466 178.008 614.2560000000001Q177.23100000000002 614.046 176.412 614.046Q175.27800000000002 614.046 174.67950000000002 614.4135Q174.08100000000002 614.781 174.08100000000002 615.411Q174.08100000000002 615.873 174.354 616.1985Q174.627 616.524 175.2675 616.8285000000001Q175.90800000000002 617.133 176.979 617.553Q178.05 617.952 178.806 618.3720000000001Q179.562 618.792 179.961 619.3905Q180.36 619.989 180.36 620.892ZM186.84900000000002 622.698Q187.269 622.698 187.71 622.6245Q188.151 622.551 188.424 622.467V623.874Q188.13 624.021 187.584 624.1155Q187.038 624.21 186.53400000000002 624.21Q185.65200000000002 624.21 184.9065 623.9055000000001Q184.161 623.601 183.699 622.845Q183.237 622.089 183.237 620.724V614.172H181.64100000000002V613.29L183.258 612.555L183.993 610.161H185.085V612.744H188.34V614.172H185.085V620.682Q185.085 621.711 185.57850000000002 622.2045Q186.072 622.698 186.84900000000002 622.698ZM194.934 612.555Q196.992 612.555 197.97899999999998 613.458Q198.966 614.361 198.966 616.335V624.0H197.62199999999999L197.265 622.404H197.18099999999998Q196.446 623.328 195.6375 623.769Q194.829 624.21 193.401 624.21Q191.868 624.21 190.86 623.4014999999999Q189.852 622.593 189.852 620.871Q189.852 619.191 191.175 618.2775Q192.498 617.364 195.249 617.28L197.16 617.217V616.545Q197.16 615.138 196.551 614.5920000000001Q195.942 614.046 194.829 614.046Q193.947 614.046 193.149 614.3085000000001Q192.351 614.571 191.658 614.907L191.091 613.521Q191.826 613.122 192.834 612.8385Q193.84199999999998 612.555 194.934 612.555ZM195.48 618.561Q193.38 618.645 192.57150000000001 619.233Q191.763 619.821 191.763 620.892Q191.763 621.837 192.34050000000002 622.278Q192.918 622.719 193.821 622.719Q195.249 622.719 196.19400000000002 621.9315Q197.139 621.144 197.139 619.506V618.498ZM206.211 622.698Q206.631 622.698 207.072 622.6245Q207.513 622.551 207.786 622.467V623.874Q207.492 624.021 206.946 624.1155Q206.4 624.21 205.89600000000002 624.21Q205.014 624.21 204.26850000000002 623.9055000000001Q203.523 623.601 203.06099999999998 622.845Q202.599 622.089 202.599 620.724V614.172H201.00300000000001V613.29L202.62 612.555L203.355 610.161H204.447V612.744H207.702V614.172H204.447V620.682Q204.447 621.711 204.9405 622.2045Q205.434 622.698 206.211 622.698ZM219.441 612.744V624.0H217.929L217.656 622.509H217.572Q217.02599999999998 623.391 216.06 623.8005Q215.094 624.21 214.00199999999998 624.21Q211.965 624.21 210.93599999999998 623.2335Q209.90699999999998 622.257 209.90699999999998 620.115V612.744H211.77599999999998V619.989Q211.77599999999998 622.677 214.27499999999998 622.677Q216.144 622.677 216.86849999999998 621.627Q217.593 620.577 217.593 618.603V612.744ZM230.34 620.892Q230.34 622.53 229.122 623.37Q227.904 624.21 225.846 624.21Q224.67 624.21 223.8195 624.021Q222.969 623.832 222.318 623.496V621.816Q222.99 622.152 223.9455 622.4355Q224.901 622.719 225.888 622.719Q227.295 622.719 227.925 622.2675Q228.555 621.816 228.555 621.06Q228.555 620.64 228.324 620.304Q228.093 619.968 227.4945 619.6320000000001Q226.896 619.296 225.783 618.876Q224.691 618.456 223.914 618.0360000000001Q223.137 617.616 222.71699999999998 617.028Q222.297 616.44 222.297 615.516Q222.297 614.088 223.46249999999998 613.3109999999999Q224.628 612.534 226.518 612.534Q227.547 612.534 228.4395 612.7335Q229.332 612.933 230.109 613.29L229.47899999999998 614.76Q228.765 614.466 227.988 614.2560000000001Q227.211 614.046 226.392 614.046Q225.258 614.046 224.6595 614.4135Q224.061 614.781 224.061 615.411Q224.061 615.873 224.334 616.1985Q224.607 616.524 225.2475 616.8285000000001Q225.888 617.133 226.959 617.553Q228.03 617.952 228.786 618.3720000000001Q229.542 618.792 229.941 619.3905Q230.34 619.989 230.34 620.892ZM239.475 608.523Q239.895 608.523 240.22050000000002 608.8065Q240.546 609.09 240.546 609.699Q240.546 610.287 240.22050000000002 610.581Q239.895 610.875 239.475 610.875Q239.013 610.875 238.698 610.581Q238.383 610.287 238.383 609.699Q238.383 609.09 238.698 608.8065Q239.013 608.523 239.475 608.523ZM240.37800000000001 612.744V624.0H238.53V612.744ZM251.27700000000002 620.892Q251.27700000000002 622.53 250.05900000000003 623.37Q248.841 624.21 246.78300000000002 624.21Q245.607 624.21 244.75650000000002 624.021Q243.906 623.832 243.25500000000002 623.496V621.816Q243.92700000000002 622.152 244.88250000000002 622.4355Q245.83800000000002 622.719 246.82500000000002 622.719Q248.232 622.719 248.86200000000002 622.2675Q249.49200000000002 621.816 249.49200000000002 621.06Q249.49200000000002 620.64 249.26100000000002 620.304Q249.03 619.968 248.4315 619.6320000000001Q247.833 619.296 246.72 618.876Q245.62800000000001 618.456 244.851 618.0360000000001Q244.074 617.616 243.654 617.028Q243.234 616.44 243.234 615.516Q243.234 614.088 244.3995 613.3109999999999Q245.565 612.534 247.455 612.534Q248.484 612.534 249.37650000000002 612.7335Q250.269 612.933 251.04600000000002 613.29L250.416 614.76Q249.702 614.466 248.925 614.2560000000001Q248.14800000000002 614.046 247.329 614.046Q246.19500000000002 614.046 245.59650000000002 614.4135Q244.99800000000002 614.781 244.99800000000002 615.411Q244.99800000000002 615.873 245.27100000000002 616.1985Q245.544 616.524 246.1845 616.8285000000001Q246.82500000000002 617.133 247.89600000000002 617.553Q248.967 617.952 249.723 618.3720000000001Q250.479 618.792 250.87800000000001 619.3905Q251.27700000000002 619.989 251.27700000000002 620.892ZM264.822 612.534Q266.901 612.534 268.17150000000004 613.983Q269.442 615.432 269.442 618.351Q269.442 621.228 268.17150000000004 622.719Q266.901 624.21 264.80100000000004 624.21Q263.499 624.21 262.6485 623.7165Q261.798 623.223 261.315 622.572H261.189Q261.231 622.929 261.273 623.4749999999999Q261.315 624.021 261.315 624.42V629.04H259.46700000000004V612.744H260.97900000000004L261.231 614.277H261.315Q261.819 613.542 262.63800000000003 613.038Q263.457 612.534 264.822 612.534ZM264.486 614.088Q262.764 614.088 262.06050000000005 615.054Q261.357 616.02 261.315 617.994V618.351Q261.315 620.43 261.9975 621.5535Q262.68 622.677 264.528 622.677Q265.557 622.677 266.2185 622.11Q266.88 621.543 267.20550000000003 620.5665Q267.531 619.59 267.531 618.33Q267.531 616.398 266.7855 615.2429999999999Q266.04 614.088 264.486 614.088ZM276.72900000000004 612.534Q278.17800000000005 612.534 279.2175000000001 613.164Q280.25700000000006 613.794 280.8135000000001 614.9385Q281.37000000000006 616.083 281.37000000000006 617.616V618.729H273.663Q273.70500000000004 620.64 274.6395 621.6375Q275.574 622.635 277.254 622.635Q278.32500000000005 622.635 279.15450000000004 622.4355Q279.98400000000004 622.236 280.86600000000004 621.858V623.475Q280.00500000000005 623.853 279.1650000000001 624.0315Q278.32500000000005 624.21 277.17 624.21Q275.574 624.21 274.3455 623.559Q273.117 622.908 272.4345 621.6165000000001Q271.752 620.325 271.752 618.456Q271.752 616.608 272.3715 615.285Q272.99100000000004 613.962 274.1145 613.248Q275.23800000000006 612.534 276.72900000000004 612.534ZM276.708 614.046Q275.38500000000005 614.046 274.61850000000004 614.8965000000001Q273.85200000000003 615.747 273.70500000000004 617.259H279.43800000000005Q279.41700000000003 615.831 278.766 614.9385Q278.115 614.046 276.708 614.046ZM289.47600000000006 612.534Q289.79100000000005 612.534 290.1585 612.5654999999999Q290.526 612.597 290.79900000000004 612.66L290.56800000000004 614.361Q290.295 614.298 289.96950000000004 614.256Q289.644 614.2139999999999 289.35 614.2139999999999Q288.48900000000003 614.2139999999999 287.73300000000006 614.6865Q286.97700000000003 615.159 286.5255 616.0095Q286.074 616.86 286.074 617.994V624.0H284.22600000000006V612.744H285.73800000000006L285.94800000000004 614.802H286.03200000000004Q286.57800000000003 613.878 287.439 613.206Q288.3 612.534 289.47600000000006 612.534ZM305.247 612.534Q307.158 612.534 308.10300000000007 613.5105Q309.04800000000006 614.487 309.04800000000006 616.671V624.0H307.221V616.755Q307.221 614.088 304.932 614.088Q303.29400000000004 614.088 302.5905 615.0329999999999Q301.88700000000006 615.978 301.88700000000006 617.784V624.0H300.06000000000006V616.755Q300.06000000000006 614.088 297.75000000000006 614.088Q296.04900000000004 614.088 295.398 615.1379999999999Q294.747 616.188 294.747 618.162V624.0H292.89900000000006V612.744H294.39000000000004L294.663 614.277H294.76800000000003Q295.293 613.395 296.18550000000005 612.9645Q297.07800000000003 612.534 298.086 612.534Q300.732 612.534 301.53000000000003 614.424H301.63500000000005Q302.20200000000006 613.458 303.17850000000004 612.996Q304.15500000000003 612.534 305.247 612.534ZM316.797 612.555Q318.855 612.555 319.842 613.458Q320.829 614.361 320.829 616.335V624.0H319.485L319.12800000000004 622.404H319.04400000000004Q318.309 623.328 317.5005 623.769Q316.692 624.21 315.264 624.21Q313.73100000000005 624.21 312.72300000000007 623.4014999999999Q311.71500000000003 622.593 311.71500000000003 620.871Q311.71500000000003 619.191 313.038 618.2775Q314.36100000000005 617.364 317.112 617.28L319.023 617.217V616.545Q319.023 615.138 318.414 614.5920000000001Q317.805 614.046 316.692 614.046Q315.81 614.046 315.012 614.3085000000001Q314.214 614.571 313.521 614.907L312.954 613.521Q313.689 613.122 314.697 612.8385Q315.70500000000004 612.555 316.797 612.555ZM317.343 618.561Q315.24300000000005 618.645 314.43450000000007 619.233Q313.62600000000003 619.821 313.62600000000003 620.892Q313.62600000000003 621.837 314.2035 622.278Q314.781 622.719 315.684 622.719Q317.112 622.719 318.057 621.9315Q319.002 621.144 319.002 619.506V618.498ZM329.733 612.534Q331.749 612.534 332.778 613.5105Q333.807 614.487 333.807 616.671V624.0H331.98V616.797Q331.98 614.088 329.46000000000004 614.088Q327.591 614.088 326.877 615.1379999999999Q326.163 616.188 326.163 618.162V624.0H324.31500000000005V612.744H325.80600000000004L326.079 614.277H326.184Q326.73 613.395 327.696 612.9645Q328.66200000000003 612.534 329.733 612.534ZM341.64000000000004 612.534Q343.08900000000006 612.534 344.12850000000003 613.164Q345.16800000000006 613.794 345.72450000000003 614.9385Q346.28100000000006 616.083 346.28100000000006 617.616V618.729H338.574Q338.61600000000004 620.64 339.55050000000006 621.6375Q340.485 622.635 342.165 622.635Q343.23600000000005 622.635 344.06550000000004 622.4355Q344.89500000000004 622.236 345.77700000000004 621.858V623.475Q344.91600000000005 623.853 344.076 624.0315Q343.23600000000005 624.21 342.081 624.21Q340.485 624.21 339.2565 623.559Q338.028 622.908 337.3455 621.6165000000001Q336.663 620.325 336.663 618.456Q336.663 616.608 337.2825 615.285Q337.90200000000004 613.962 339.0255000000001 613.248Q340.14900000000006 612.534 341.64000000000004 612.534ZM341.619 614.046Q340.29600000000005 614.046 339.52950000000004 614.8965000000001Q338.76300000000003 615.747 338.61600000000004 617.259H344.34900000000005Q344.32800000000003 615.831 343.677 614.9385Q343.02600000000007 614.046 341.619 614.046ZM354.555 612.534Q356.571 612.534 357.6 613.5105Q358.629 614.487 358.629 616.671V624.0H356.802V616.797Q356.802 614.088 354.28200000000004 614.088Q352.413 614.088 351.699 615.1379999999999Q350.985 616.188 350.985 618.162V624.0H349.13700000000006V612.744H350.62800000000004L350.901 614.277H351.00600000000003Q351.552 613.395 352.51800000000003 612.9645Q353.48400000000004 612.534 354.555 612.534ZM365.874 622.698Q366.29400000000004 622.698 366.735 622.6245Q367.17600000000004 622.551 367.44900000000007 622.467V623.874Q367.15500000000003 624.021 366.60900000000004 624.1155Q366.06300000000005 624.21 365.559 624.21Q364.677 624.21 363.9315 623.9055000000001Q363.18600000000004 623.601 362.72400000000005 622.845Q362.26200000000006 622.089 362.26200000000006 620.724V614.172H360.66600000000005V613.29L362.283 612.555L363.01800000000003 610.161H364.11V612.744H367.36500000000007V614.172H364.11V620.682Q364.11 621.711 364.60350000000005 622.2045Q365.09700000000004 622.698 365.874 622.698ZM369.42300000000006 622.866Q369.42300000000006 622.089 369.80100000000004 621.774Q370.17900000000003 621.459 370.70400000000006 621.459Q371.25000000000006 621.459 371.6385 621.774Q372.02700000000004 622.089 372.02700000000004 622.866Q372.02700000000004 623.622 371.6385 623.958Q371.25000000000006 624.294 370.70400000000006 624.294Q370.17900000000003 624.294 369.80100000000004 623.958Q369.42300000000006 623.622 369.42300000000006 622.866ZM385.173 609.006Q387.966 609.006 389.2995 610.0664999999999Q390.63300000000004 611.127 390.63300000000004 613.269Q390.63300000000004 614.466 390.192 615.264Q389.75100000000003 616.062 389.06850000000003 616.5345Q388.386 617.007 387.63 617.28L391.74600000000004 624.0H389.541L385.908 617.805H382.92600000000004V624.0H381.036V609.006ZM385.06800000000004 610.644H382.92600000000004V616.209H385.173Q387.0 616.209 387.84000000000003 615.4845Q388.68 614.76 388.68 613.353Q388.68 611.883 387.798 611.2635Q386.916 610.644 385.06800000000004 610.644ZM398.10900000000004 612.555Q400.16700000000003 612.555 401.154 613.458Q402.141 614.361 402.141 616.335V624.0H400.797L400.44000000000005 622.404H400.35600000000005Q399.62100000000004 623.328 398.8125 623.769Q398.004 624.21 396.576 624.21Q395.04300000000006 624.21 394.0350000000001 623.4014999999999Q393.02700000000004 622.593 393.02700000000004 620.871Q393.02700000000004 619.191 394.35 618.2775Q395.67300000000006 617.364 398.42400000000004 617.28L400.33500000000004 617.217V616.545Q400.33500000000004 615.138 399.726 614.5920000000001Q399.117 614.046 398.004 614.046Q397.122 614.046 396.324 614.3085000000001Q395.526 614.571 394.833 614.907L394.266 613.521Q395.00100000000003 613.122 396.009 612.8385Q397.01700000000005 612.555 398.10900000000004 612.555ZM398.65500000000003 618.561Q396.55500000000006 618.645 395.7465000000001 619.233Q394.93800000000005 619.821 394.93800000000005 620.892Q394.93800000000005 621.837 395.51550000000003 622.278Q396.093 622.719 396.99600000000004 622.719Q398.42400000000004 622.719 399.369 621.9315Q400.314 621.144 400.314 619.506V618.498ZM409.386 622.698Q409.80600000000004 622.698 410.24700000000007 622.6245Q410.68800000000005 622.551 410.96100000000007 622.467V623.874Q410.66700000000003 624.021 410.12100000000004 624.1155Q409.57500000000005 624.21 409.071 624.21Q408.189 624.21 407.44350000000003 623.9055000000001Q406.69800000000004 623.601 406.23600000000005 622.845Q405.77400000000006 622.089 405.77400000000006 620.724V614.172H404.17800000000005V613.29L405.795 612.555L406.53000000000003 610.161H407.622V612.744H410.87700000000007V614.172H407.622V620.682Q407.622 621.711 408.1155 622.2045Q408.60900000000004 622.698 409.386 622.698ZM417.55500000000006 612.534Q419.0040000000001 612.534 420.0435000000001 613.164Q421.0830000000001 613.794 421.6395000000001 614.9385Q422.1960000000001 616.083 422.1960000000001 617.616V618.729H414.48900000000003Q414.53100000000006 620.64 415.4655 621.6375Q416.40000000000003 622.635 418.08000000000004 622.635Q419.15100000000007 622.635 419.98050000000006 622.4355Q420.81000000000006 622.236 421.69200000000006 621.858V623.475Q420.8310000000001 623.853 419.9910000000001 624.0315Q419.15100000000007 624.21 417.99600000000004 624.21Q416.40000000000003 624.21 415.17150000000004 623.559Q413.94300000000004 622.908 413.26050000000004 621.6165000000001Q412.57800000000003 620.325 412.57800000000003 618.456Q412.57800000000003 616.608 413.19750000000005 615.285Q413.81700000000006 613.962 414.94050000000004 613.248Q416.0640000000001 612.534 417.55500000000006 612.534ZM417.53400000000005 614.046Q416.21100000000007 614.046 415.44450000000006 614.8965000000001Q414.67800000000005 615.747 414.53100000000006 617.259H420.26400000000007Q420.24300000000005 615.831 419.59200000000004 614.9385Q418.94100000000003 614.046 417.53400000000005 614.046ZM434.271 622.698Q434.69100000000003 622.698 435.13200000000006 622.6245Q435.57300000000004 622.551 435.84600000000006 622.467V623.874Q435.552 624.021 435.00600000000003 624.1155Q434.46000000000004 624.21 433.956 624.21Q433.074 624.21 432.3285 623.9055000000001Q431.583 623.601 431.12100000000004 622.845Q430.65900000000005 622.089 430.65900000000005 620.724V614.172H429.06300000000005V613.29L430.68 612.555L431.415 610.161H432.507V612.744H435.76200000000006V614.172H432.507V620.682Q432.507 621.711 433.0005 622.2045Q433.494 622.698 434.271 622.698ZM442.44000000000005 612.534Q443.88900000000007 612.534 444.9285000000001 613.164Q445.9680000000001 613.794 446.5245000000001 614.9385Q447.0810000000001 616.083 447.0810000000001 617.616V618.729H439.374Q439.41600000000005 620.64 440.3505 621.6375Q441.285 622.635 442.96500000000003 622.635Q444.03600000000006 622.635 444.86550000000005 622.4355Q445.69500000000005 622.236 446.57700000000006 621.858V623.475Q445.71600000000007 623.853 444.8760000000001 624.0315Q444.03600000000006 624.21 442.88100000000003 624.21Q441.285 624.21 440.0565 623.559Q438.82800000000003 622.908 438.1455 621.6165000000001Q437.463 620.325 437.463 618.456Q437.463 616.608 438.08250000000004 615.285Q438.70200000000006 613.962 439.82550000000003 613.248Q440.94900000000007 612.534 442.44000000000005 612.534ZM442.41900000000004 614.046Q441.09600000000006 614.046 440.32950000000005 614.8965000000001Q439.56300000000005 615.747 439.41600000000005 617.259H445.14900000000006Q445.12800000000004 615.831 444.47700000000003 614.9385Q443.826 614.046 442.41900000000004 614.046ZM455.18700000000007 612.534Q455.50200000000007 612.534 455.8695 612.5654999999999Q456.237 612.597 456.51000000000005 612.66L456.27900000000005 614.361Q456.00600000000003 614.298 455.68050000000005 614.256Q455.355 614.2139999999999 455.06100000000004 614.2139999999999Q454.20000000000005 614.2139999999999 453.4440000000001 614.6865Q452.68800000000005 615.159 452.23650000000004 616.0095Q451.785 616.86 451.785 617.994V624.0H449.93700000000007V612.744H451.44900000000007L451.65900000000005 614.802H451.74300000000005Q452.28900000000004 613.878 453.15000000000003 613.206Q454.011 612.534 455.18700000000007 612.534ZM470.958 612.534Q472.869 612.534 473.8140000000001 613.5105Q474.75900000000007 614.487 474.75900000000007 616.671V624.0H472.932V616.755Q472.932 614.088 470.64300000000003 614.088Q469.00500000000005 614.088 468.30150000000003 615.0329999999999Q467.59800000000007 615.978 467.59800000000007 617.784V624.0H465.7710000000001V616.755Q465.7710000000001 614.088 463.46100000000007 614.088Q461.76000000000005 614.088 461.10900000000004 615.1379999999999Q460.458 616.188 460.458 618.162V624.0H458.61000000000007V612.744H460.10100000000006L460.374 614.277H460.47900000000004Q461.004 613.395 461.89650000000006 612.9645Q462.78900000000004 612.534 463.797 612.534Q466.44300000000004 612.534 467.24100000000004 614.424H467.34600000000006Q467.91300000000007 613.458 468.88950000000006 612.996Q469.86600000000004 612.534 470.958 612.534ZM485.574 620.892Q485.574 622.53 484.356 623.37Q483.13800000000003 624.21 481.08000000000004 624.21Q479.90400000000005 624.21 479.05350000000004 624.021Q478.20300000000003 623.832 477.552 623.496V621.816Q478.22400000000005 622.152 479.1795000000001 622.4355Q480.13500000000005 622.719 481.122 622.719Q482.52900000000005 622.719 483.15900000000005 622.2675Q483.78900000000004 621.816 483.78900000000004 621.06Q483.78900000000004 620.64 483.55800000000005 620.304Q483.32700000000006 619.968 482.72850000000005 619.6320000000001Q482.13000000000005 619.296 481.01700000000005 618.876Q479.925 618.456 479.148 618.0360000000001Q478.37100000000004 617.616 477.951 617.028Q477.53100000000006 616.44 477.53100000000006 615.516Q477.53100000000006 614.088 478.6965 613.3109999999999Q479.862 612.534 481.752 612.534Q482.78100000000006 612.534 483.67350000000005 612.7335Q484.56600000000003 612.933 485.343 613.29L484.713 614.76Q483.999 614.466 483.22200000000004 614.2560000000001Q482.44500000000005 614.046 481.62600000000003 614.046Q480.492 614.046 479.8935 614.4135Q479.295 614.781 479.295 615.411Q479.295 615.873 479.568 616.1985Q479.841 616.524 480.4815 616.8285000000001Q481.122 617.133 482.19300000000004 617.553Q483.264 617.952 484.02 618.3720000000001Q484.776 618.792 485.175 619.3905Q485.574 619.989 485.574 620.892ZM498.02700000000004 612.555Q500.08500000000004 612.555 501.072 613.458Q502.059 614.361 502.059 616.335V624.0H500.71500000000003L500.35800000000006 622.404H500.27400000000006Q499.53900000000004 623.328 498.7305 623.769Q497.922 624.21 496.494 624.21Q494.96100000000007 624.21 493.9530000000001 623.4014999999999Q492.94500000000005 622.593 492.94500000000005 620.871Q492.94500000000005 619.191 494.26800000000003 618.2775Q495.59100000000007 617.364 498.34200000000004 617.28L500.25300000000004 617.217V616.545Q500.25300000000004 615.138 499.644 614.5920000000001Q499.035 614.046 497.922 614.046Q497.04 614.046 496.242 614.3085000000001Q495.444 614.571 494.75100000000003 614.907L494.184 613.521Q494.91900000000004 613.122 495.927 612.8385Q496.93500000000006 612.555 498.02700000000004 612.555ZM498.57300000000004 618.561Q496.47300000000007 618.645 495.6645000000001 619.233Q494.85600000000005 619.821 494.85600000000005 620.892Q494.85600000000005 621.837 495.43350000000004 622.278Q496.011 622.719 496.91400000000004 622.719Q498.34200000000004 622.719 499.28700000000003 621.9315Q500.232 621.144 500.232 619.506V618.498ZM510.90000000000003 612.534Q512.979 612.534 514.2495000000001 613.983Q515.5200000000001 615.432 515.5200000000001 618.351Q515.5200000000001 621.228 514.2495000000001 622.719Q512.979 624.21 510.8790000000001 624.21Q509.57700000000006 624.21 508.72650000000004 623.7165Q507.87600000000003 623.223 507.39300000000003 622.572H507.26700000000005Q507.309 622.929 507.351 623.4749999999999Q507.39300000000003 624.021 507.39300000000003 624.42V629.04H505.5450000000001V612.744H507.0570000000001L507.309 614.277H507.39300000000003Q507.89700000000005 613.542 508.716 613.038Q509.535 612.534 510.90000000000003 612.534ZM510.564 614.088Q508.84200000000004 614.088 508.1385 615.054Q507.43500000000006 616.02 507.39300000000003 617.994V618.351Q507.39300000000003 620.43 508.07550000000003 621.5535Q508.75800000000004 622.677 510.60600000000005 622.677Q511.63500000000005 622.677 512.2965 622.11Q512.9580000000001 621.543 513.2835 620.5665Q513.609 619.59 513.609 618.33Q513.609 616.398 512.8635 615.2429999999999Q512.118 614.088 510.564 614.088ZM523.815 612.534Q525.8940000000001 612.534 527.1645000000001 613.983Q528.4350000000001 615.432 528.4350000000001 618.351Q528.4350000000001 621.228 527.1645000000001 622.719Q525.8940000000001 624.21 523.7940000000001 624.21Q522.4920000000001 624.21 521.6415000000001 623.7165Q520.791 623.223 520.3080000000001 622.572H520.182Q520.224 622.929 520.2660000000001 623.4749999999999Q520.3080000000001 624.021 520.3080000000001 624.42V629.04H518.46V612.744H519.9720000000001L520.224 614.277H520.3080000000001Q520.8120000000001 613.542 521.6310000000001 613.038Q522.45 612.534 523.815 612.534ZM523.479 614.088Q521.7570000000001 614.088 521.0535 615.054Q520.35 616.02 520.3080000000001 617.994V618.351Q520.3080000000001 620.43 520.9905000000001 621.5535Q521.6730000000001 622.677 523.5210000000001 622.677Q524.5500000000001 622.677 525.2115000000001 622.11Q525.873 621.543 526.1985000000001 620.5665Q526.5240000000001 619.59 526.5240000000001 618.33Q526.5240000000001 616.398 525.7785000000001 615.2429999999999Q525.033 614.088 523.479 614.088ZM533.2230000000001 624.0H531.375V608.04H533.2230000000001ZM535.029 612.744H537.003L539.4390000000001 619.149Q539.754 619.989 540.0060000000001 620.7555Q540.258 621.522 540.384 622.215H540.4680000000001Q540.594 621.69 540.867 620.8395Q541.14 619.989 541.4340000000001 619.128L543.7230000000001 612.744H545.7180000000001L540.8670000000001 625.554Q540.279 627.15 539.3445 628.095Q538.4100000000001 629.04 536.772 629.04Q536.268 629.04 535.8900000000001 628.9875Q535.5120000000001 628.935 535.239 628.872V627.402Q535.47 627.444 535.7955000000001 627.486Q536.1210000000001 627.528 536.4780000000001 627.528Q537.4440000000001 627.528 538.0425 626.982Q538.6410000000001 626.436 538.9770000000001 625.533L539.565 624.042ZM547.23 622.866Q547.23 622.089 547.6080000000001 621.774Q547.9860000000001 621.459 548.5110000000001 621.459Q549.0570000000001 621.459 549.4455 621.774Q549.8340000000001 622.089 549.8340000000001 622.866Q549.8340000000001 623.622 549.4455 623.958Q549.0570000000001 624.294 548.5110000000001 624.294Q547.9860000000001 624.294 547.6080000000001 623.958Q547.23 623.622 547.23 622.866Z" fill="#18263C"/></svg>